<svg xmlns="http://www.w3.org/2000/svg" viewBox="0 0 512 512"><style>path{fill:#1F2328}@media (prefers-color-scheme:dark){path{fill:#E6EDF3}}</style><path d="m275.58 91.6 80.11 46.78c2.88 1.64 2.98 6.2 0 7.84l-95.19 55.63a8.73 8.73 0 0 1-8.95 0l-95.19-55.63c-2.93-1.59-2.98-6.25 0-7.84l80.06-46.78V0L32 119.42v238.84l78.38-45.78v-93.56c-.05-3.34 3.82-5.72 6.7-3.92l95.19 55.63c2.88 1.7 4.5 4.72 4.5 7.84v111.21c.05 3.34-3.82 5.72-6.7 3.92l-80.11-46.78-78.38 45.77L256 512l204.42-119.42-78.38-45.77-80.11 46.78c-2.83 1.75-6.81-.53-6.7-3.92V278.46c0-3.34 1.83-6.3 4.5-7.84l95.19-55.63c2.83-1.75 6.81.48 6.7 3.92v93.56L480 358.25V119.42L275.58 0v91.6z"/></svg>